<?xml version="1.0" standalone="no"?>
<!DOCTYPE svg PUBLIC "-//W3C//DTD SVG 20010904//EN"
 "http://www.w3.org/TR/2001/REC-SVG-20010904/DTD/svg10.dtd">
<svg version="1.0" xmlns="http://www.w3.org/2000/svg"
 width="260.000000pt" height="260.000000pt" viewBox="0 0 260.000000 260.000000"
 preserveAspectRatio="xMidYMid meet">
<metadata>
Created by potrace 1.14, written by Peter Selinger 2001-2017
</metadata>
<g transform="translate(0.000000,260.000000) scale(0.100000,-0.100000)"
fill="#000000" stroke="none">
<path d="M1420 1521 c0 -4 18 -8 40 -8 22 0 40 3 40 7 0 4 -18 8 -40 8 -22 0
-40 -3 -40 -7z"/>
<path d="M103 1472 c-20 -2 -45 -15 -62 -33 -25 -25 -29 -35 -26 -71 6 -51 20
-67 94 -107 66 -35 79 -47 85 -82 7 -47 -31 -93 -76 -92 -48 1 -59 5 -87 29
-17 14 -31 21 -31 16 0 -23 61 -53 109 -55 81 -2 135 54 124 127 -6 41 -32 68
-98 100 -30 14 -61 36 -69 48 -49 69 26 137 107 98 20 -10 37 -15 37 -10 0 7
-13 15 -35 20 -5 1 -17 5 -25 9 -8 3 -30 5 -47 3z"/>
<path d="M459 1471 c-13 -5 -15 -29 -14 -161 2 -165 7 -188 51 -216 24 -16 83
-29 69 -16 -4 4 -11 7 -17 7 -6 0 -20 13 -32 28 -19 26 -21 44 -24 190 -1 89
-6 164 -10 168 -4 4 -14 4 -23 0z"/>
<path d="M943 1473 c-10 -4 -13 -52 -13 -199 0 -107 3 -194 8 -195 28 -4 166
-3 173 1 5 4 -21 7 -57 8 -36 1 -69 4 -72 6 -4 2 -6 88 -6 189 1 186 -1 201
-33 190z"/>
<path d="M1721 1471 c-10 -7 16 -100 56 -201 3 -8 7 -19 9 -25 12 -45 54 -150
61 -152 4 -2 20 33 35 77 15 44 23 80 18 80 -4 0 -11 -16 -14 -35 -4 -19 -10
-36 -14 -39 -4 -2 -27 50 -50 117 -59 168 -62 175 -76 180 -7 3 -18 2 -25 -2z"/>
<path d="M2416 1472 c-9 -2 -16 -13 -17 -25 -3 -92 -1 -356 4 -363 6 -10 144
-11 153 -1 3 3 -7 5 -22 5 -16 0 -43 0 -59 1 l-31 1 0 90 0 90 31 1 30 1 -30
7 -30 6 0 85 0 85 80 5 80 6 -86 4 c-48 3 -94 4 -103 2z"/>
<path d="M713 1435 c0 -22 2 -30 4 -17 2 12 2 30 0 40 -3 9 -5 -1 -4 -23z"/>
<path d="M1431 1407 c-13 -34 -35 -90 -48 -125 -14 -35 -23 -65 -20 -68 2 -3
14 21 26 53 13 32 27 66 32 75 5 10 9 25 9 35 0 36 20 -7 72 -151 46 -129 57
-150 76 -151 12 -1 22 1 22 5 0 12 -131 375 -138 382 -4 4 -18 -21 -31 -55z"/>
<path d="M2190 1459 c0 -5 5 -7 10 -4 6 3 10 8 10 11 0 2 -4 4 -10 4 -5 0 -10
-5 -10 -11z"/>
<path d="M1961 1438 c-17 -46 -17 -52 -2 -70 8 -9 16 -23 17 -30 2 -13 52
-142 81 -210 9 -21 19 -38 23 -38 8 0 41 102 35 108 -3 3 -8 -5 -13 -18 -7
-19 -15 -4 -51 91 -23 63 -44 122 -46 131 -5 21 -24 58 -31 58 -2 0 -8 -10
-13 -22z"/>
<path d="M2182 1423 c-11 -22 -24 -73 -18 -73 2 0 11 20 19 45 16 46 15 59 -1
28z"/>
<path d="M712 1345 c0 -16 2 -22 5 -12 2 9 2 23 0 30 -3 6 -5 -1 -5 -18z"/>
<path d="M1933 1353 c-3 -10 -12 -33 -19 -50 -10 -25 -10 -34 -1 -39 7 -4 9
-4 5 1 -4 4 -2 17 3 28 14 25 29 77 23 77 -3 0 -7 -8 -11 -17z"/>
<path d="M2132 1273 c-11 -36 -17 -62 -13 -57 13 14 50 124 42 124 -4 0 -17
-30 -29 -67z"/>
<path d="M709 1248 c-1 -81 -8 -101 -44 -140 -24 -25 -26 -29 -7 -19 39 21 55
58 60 142 3 43 2 79 -2 79 -3 0 -6 -28 -7 -62z"/>
<path d="M2520 1280 c-20 -12 -10 -19 14 -10 11 3 15 9 10 13 -6 3 -16 2 -24
-3z"/>
<path d="M1344 1184 c-3 -10 -13 -34 -21 -52 -8 -18 -13 -38 -11 -44 2 -6 14
15 26 47 12 32 20 60 17 63 -2 3 -7 -4 -11 -14z"/>
<path d="M606 1082 c-3 -5 1 -9 9 -9 8 0 15 4 15 9 0 4 -4 8 -9 8 -6 0 -12 -4
-15 -8z"/>
<path d="M2570 1080 c0 -5 7 -7 15 -4 8 4 15 8 15 10 0 2 -7 4 -15 4 -8 0 -15
-4 -15 -10z"/>
</g>
</svg>
