<?xml version="1.0" encoding="utf-8"?>
<!-- Generator: Adobe Illustrator 26.3.0, SVG Export Plug-In . SVG Version: 6.00 Build 0)  -->
<svg version="1.1" id="Capa_1" xmlns="http://www.w3.org/2000/svg" xmlns:xlink="http://www.w3.org/1999/xlink" x="0px" y="0px"
	 viewBox="0 0 2000 407" style="enable-background:new 0 0 2000 407;" xml:space="preserve">
<style type="text/css">
	.st0{fill:#1D1D1B;}
</style>
<g>
	<g>
		<g>
			<path class="st0" d="M61.36,340.58l0-12.11c19.37,31.49,56.51,43.19,81.94,43.19c34.31,0,60.55-27.85,60.55-59.74
				c0-79.52-132.8-58.12-132.8-151.37c0-46.02,41.98-69.02,78.31-69.02c23.01,0,49.25,7.27,63.78,24.22v12.11
				c-17.76-27.45-48.03-30.68-64.99-30.68c-26.24,0-52.88,19.38-52.88,50.05c0,79.92,134.41,56.51,134.41,149.75
				c0,50.86-40.77,80.33-85.57,80.33C108.99,377.31,85.18,366.01,61.36,340.58z"/>
		</g>
		<g>
			<path class="st0" d="M383.86,294.56c-0.4-16.55,0-90.82,0-144.5V93.14l30.68,0l0,192.54c0,83.56,42.38,88.8,69.83,88.8
				c71.04,0,89.21-48.04,89.21-104.54l0-176.8h5.65l0,176.8c0,77.5-31.89,110.19-99.7,110.19
				C401.22,380.14,384.67,329.28,383.86,294.56z"/>
		</g>
		<g>
			<path class="st0" d="M734.21,93.14l30.68,0l0,276.9l106.97,0v5.65l-137.64,0L734.21,93.14z"/>
		</g>
		<g>
			<path class="st0" d="M1295.66,93.14l34.31,0l78.71,225.24l79.11-226.85l85.98,232.1l74.68-230.48h5.65l-92.03,283.36
				l-88.8-227.66l-78.71,227.66L1295.66,93.14z"/>
		</g>
		<g>
			<path class="st0" d="M1794.13,93.14l144.51,0v5.65l-113.83,0V232l93.65,0v5.65l-93.65,0l0,132.4l113.83,0v5.65l-144.51,0V93.14z"
				/>
		</g>
		<g>
			<rect x="1081.91" y="51.86" class="st0" width="65.62" height="10.03"/>
		</g>
		<g>
			<polygon class="st0" points="1114.43,91.53 1098.28,132.7 1003.83,375.7 1010.29,375.7 1101.51,141.98 1184.66,375.7 
				1217.36,375.7 			"/>
		</g>
	</g>
</g>
</svg>
